HIERARCHY
ROOT hip
{
  OFFSET 0.0 0.0 0.0
  CHANNELS 6 Xposition Yposition Zposition Zrotation Yrotation Xrotation
  JOINT torso
  {
    OFFSET 0.0 0.0 0.0
    CHANNELS 3 Zrotation Xrotation Yrotation
    JOINT neck
    {
      OFFSET -31.42098999999993 328.8025209999999 74.3554680000002
      CHANNELS 3 Zrotation Xrotation Yrotation
      JOINT head
      {
        OFFSET 3.3519900000001144 303.81732099999994 206.53942900000015
        CHANNELS 3 Zrotation Xrotation Yrotation
        End Site
        {
          OFFSET 0.0 0.0 0.0
        }
      }
    }
    JOINT left_collar
    {
      OFFSET -31.42098999999993 328.8025209999999 74.3554680000002
      CHANNELS 3 Zrotation Xrotation Yrotation
      JOINT left_upper_arm
      {
        OFFSET -124.490479 -8.162841999999841 8.226441000000023
        CHANNELS 3 Zrotation Xrotation Yrotation
        JOINT left_forearm
        {
          OFFSET -253.595764 -1.5758060000000569 105.0729980000001
          CHANNELS 3 Zrotation Xrotation Yrotation
          JOINT left_hand
          {
            OFFSET -269.48803699999996 0.1478270000000066 -55.346191999999974
            CHANNELS 3 Zrotation Xrotation Yrotation
            End Site
            {
              OFFSET 0.0 0.0 0.0
            }
          }
        }
      }
    }
    JOINT right_collar
    {
      OFFSET -31.42098999999993 328.8025209999999 74.3554680000002
      CHANNELS 3 Zrotation Xrotation Yrotation
      JOINT right_upper_arm
      {
        OFFSET 162.02484099999998 0.46441600000002836 2.2303470000001653
        CHANNELS 3 Zrotation Xrotation Yrotation
        JOINT right_forearm
        {
          OFFSET 240.01246700000004 -25.835875999999985 121.34179699999959
          CHANNELS 3 Zrotation Xrotation Yrotation
          JOINT right_hand
          {
            OFFSET 252.48539699999992 18.910399999999868 -67.53466800000001
            CHANNELS 3 Zrotation Xrotation Yrotation
            End Site
            {
              OFFSET 0.0 0.0 0.0
            }
          }
        }
      }
    }
  }
}
MOTION
Frames: 9
Frame Time: 0.01
-244.3075647077972 267.04567202757676 1410.2985599584147 2.9629504947588616 -3.736123888719937 -0.6816838298208037 0.1585214548434909 3.3112147862965644 0.2871621726511419 -3.4151134591502874 -8.668064876913046 2.5462581206342993 0.0 0.0 0.0 0.0417761665872692 0.07611345943499827 -1.1117072856101975 51.058115128753535 8.18684355436139 27.686818819472876 42.363654176425584 -4.582075798703976 -11.435875207625921 0.0 0.0 0.0 0.2037056830880493 -0.031048682751666015 6.071354393999319 -49.803957551208065 8.56037017855152 -30.039107218544604 -56.3462123575 -9.300295756735256 13.864321306628092 0.0 100.0 0.0
-244.2305389502772 266.94206919642346 1410.15679741933 3.098915537576256 -3.8580117437713377 -0.5113068784446113 0.06155394946307362 3.3767284794635875 0.3127746798954773 -3.381300465346168 -8.577040985827518 2.519707776757399 0.0 0.0 0.0 0.00460843110230093 0.08593193128756695 -1.3040478456469022 51.0690735584576 8.197571431054863 27.66922290716367 42.342913304842554 -4.576082390568844 -11.444943976192105 0.0 0.0 0.0 0.15904452903058072 -0.027199560935286252 5.869205353609072 -49.81793013394194 8.573619225684588 -30.02335585886308 -56.29424143285473 -9.304827107354544 13.835199395693945 0.0 100.0 0.0
-244.15603964458361 266.83726967273844 1410.0127889628843 3.2324448559574392 -3.9791487303792916 -0.3428327957127972 -0.03371416589596278 3.4408368165899597 0.3378072466949638 -3.3478642291335925 -8.484416848009362 2.4934137314631215 0.0 0.0 0.0 -0.0321762399742326 0.09530717234710766 -1.4910231457153875 51.08034023305987 8.209356893291348 27.649609693918975 42.32248558508273 -4.5702305696630825 -11.453755278710393 0.0 0.0 0.0 0.11591733567187881 -0.023618981243654174 5.670392088959867 -49.831893719481236 8.586261818500315 -30.00862324307737 -56.24309846314862 -9.309505893937775 13.805996357970008 0.0 100.0 0.0
-244.08407730815946 266.73099374897333 1409.8633968913527 3.361604846754252 -4.098392483031312 -0.17824670083529198 -0.12614300089352445 3.50278641784248 0.36196975071236503 -3.315268939160254 -8.390286099368504 2.467711739177207 0.0 0.0 0.0 -0.06786341090708792 0.10413947980660804 -1.670109726448686 51.091757502678824 8.221981520810619 27.628364010220892 42.3023177536552 -4.564632220072252 -11.46200524553491 0.0 0.0 0.0 0.07510019744529585 -0.020355258683662503 5.478410764152878 -49.84550518268112 8.597661386009024 -29.995813887147982 -56.19311747750699 -9.31436468925336 13.776764887806863 0.0 100.0 0.0
-244.01448971549075 266.62286295500456 1409.7052802436024 3.4845885869298763 -4.214676632885175 -0.0193773217295967 -0.21467824008426886 3.561859992080898 0.38499685054055643 -3.283970244734875 -8.294666414594204 2.4429287553740044 0.0 0.0 0.0 -0.1017623695122651 0.11234508143117253 -1.8389491919034917 51.10316509330862 8.235237174542421 27.605848154391477 42.28232839251279 -4.559406770039324 -11.469361539814441 0.0 0.0 0.0 0.037305255188150005 -0.017442649030678766 5.296557548935052 -49.85843112752597 8.60721656432884 -29.985776525165868 -56.14459699960261 -9.319417390002709 13.74758683641003 0.0 100.0 0.0
-243.94692544435293 266.51241082313584 1409.5349827553712 3.5997663665684385 -4.327042279189465 0.13215404863213032 -0.29838010949068666 3.617398184370287 0.4066549104983924 -3.2544021418486757 -8.19750042156891 2.419373584804499 0.0 0.0 0.0 -0.1332269604522904 0.11985768154996852 -1.9954186447836457 51.11440304267811 8.24893151429436 27.58239179472908 42.26241069913633 -4.554679122054052 -11.475469477931078 0.0 0.0 0.0 0.0031560606710996386 -0.014901796176818145 5.1278266555262455 -49.870358760122876 8.614383412067017 -29.979272443857596 -56.09779229819103 -9.324655509942966 13.71857859738556 0.0 100.0 0.0
-243.8808302489609 266.39909841630816 1409.349018743339 3.705727167761322 -4.4346645978130494 0.2749730370715977 -0.37644708724550646 3.668819514831654 0.42674748558751474 -3.226965145173987 -8.09866053775069 2.3973285728559413 0.0 0.0 0.0 -0.1616734345601409 0.12662916905333446 -2.1376912223991638 51.12531366128241 8.262891545992884 27.55828554462654 42.24243633609257 -4.550577252397778 -11.479959320068362 0.0 0.0 0.0 -0.02683434305741665 -0.012740947870439575 4.974823486219145 -49.88100485238735 8.618694985687304 -29.97694750264536 -56.05290880907856 -9.330045457650947 13.689894724533248 0.0 100.0 0.0
-243.81543663087288 266.28233412381064 1409.1439537116198 3.8013098287632916 -4.536873352758118 0.40797877611172434 -0.44823372121453336 3.7156374243790804 0.44511925185651785 -3.2020162078776515 -7.997957358561434 2.3770426530321456 0.0 0.0 0.0 -0.18659466426412422 0.13262959885696501 -2.26428459310829 51.135742459718955 8.276965013176099 27.533778547861875 42.22226032868014 -4.547229503542854 -11.482454656863048 0.0 0.0 0.0 -0.05228157216512935 -0.010957689409302505 4.83969595789952 -49.89012262934249 8.619777542803774 -29.979308900187515 -56.010096944943506 -9.3355270103616 13.661729377534657 0.0 100.0 0.0
-243.74975684128117 266.1614968435977 1408.9164771086962 3.885623368321643 -4.633166569116093 0.5303572078372824 -0.5132623459997868 3.7574736639883994 0.4616583784388721 -3.1798606570369508 -7.895150950257529 2.3587259186301845 0.0 0.0 0.0 -0.20757041029967768 0.13784660455141 -2.374096224148909 51.14553810925591 8.291019587519799 27.509080173071183 42.20172694873355 -4.544761592237022 -11.482581813687979 0.0 0.0 0.0 -0.07294336214533823 -0.0095409199983287 4.724085732381325 -49.89750665766395 8.617362876223234 -29.986707462030093 -55.969448430619956 -9.341013142708755 13.634315281948945 0.0 100.0 0.0
